<!-- icon666.com - MILLIONS OF FREE VECTOR ICONS --><svg id="Layer_1" enable-background="new 0 0 512 512" viewBox="0 0 512 512" xmlns="http://www.w3.org/2000/svg" xmlns:xlink="http://www.w3.org/1999/xlink"><linearGradient id="SVGID_1_" gradientUnits="userSpaceOnUse" x1="71" x2="441" y1="256" y2="256"><stop offset="0" stop-color="#80d8ff"></stop><stop offset="1" stop-color="#ea80fc"></stop></linearGradient><path d="m341 512h-250c-11.046 0-20-8.954-20-20s8.954-20 20-20h250c33.084 0 60-26.916 60-60v-76c0-33.084-26.916-60-60-60h-170c-55.141 0-100-44.86-100-100v-76c0-55.14 44.859-100 100-100h210c11.046 0 20 8.954 20 20s-8.954 20-20 20h-210c-33.084 0-60 26.916-60 60v76c0 33.084 26.916 60 60 60h170c55.141 0 100 44.86 100 100v76c0 55.14-44.859 100-100 100z" fill="url(#SVGID_1_)"></path></svg>